<svg xmlns="http://www.w3.org/2000/svg" fill="none" viewBox="0 0 24 24" id="Partly-Cloudy-Day-Fill--Streamline-Outlined-Fill-Material" height="24" width="24">
  <path fill="white" d="M6 19.5c-0.96665 0 -1.791665 -0.34165 -2.475 -1.025C2.841665 17.79165 2.5 16.96665 2.5 16s0.341665 -1.79165 1.025 -2.475C4.208335 12.84165 5.03335 12.5 6 12.5c0.65 0 1.24585 0.175 1.7875 0.525 0.54165 0.35 0.9375 0.825 1.1875 1.425l0.45 1.025h1.1c0.55 0 1.01665 0.2 1.4 0.6 0.38335 0.4 0.575 0.875 0.575 1.425s-0.19585 1.02085 -0.5875 1.4125C11.52085 19.30415 11.05 19.5 10.5 19.5h-4.5Zm7.95 -1.825c0 -1.01665 -0.34165 -1.8875 -1.025 -2.6125 -0.68335 -0.725 -1.525 -1.0875 -2.525 -1.0875 -0.33335 -0.93335 -0.9 -1.675 -1.7 -2.225 -0.8 -0.55 -1.7 -0.8 -2.7 -0.75 0.23335 -1.46665 0.92085 -2.66665 2.0625 -3.6C9.20415 6.46665 10.51665 6 12 6c1.66665 0 3.08335 0.58335 4.25 1.75 1.16665 1.16665 1.75 2.58335 1.75 4.25 0 1.3 -0.37085 2.46665 -1.1125 3.5s-1.72085 1.75835 -2.9375 2.175ZM11.25 4.75V1h1.5v3.75h-1.5Zm6.4 2.65 -1.05 -1.075 2.65 -2.65 1.05 1.075 -2.65 2.65Zm1.6 5.35v-1.5H23v1.5h-3.75Zm0.025 7.55 -2.65 -2.65 1.075 -1.075 2.65 2.65 -1.075 1.075ZM6.35 7.4 3.7 4.75l1.05 -1.05 2.65 2.65 -1.05 1.05Z" stroke-width="0.5"></path>
</svg>