<svg xmlns="http://www.w3.org/2000/svg" fill="green" viewBox="0 0 24 24" id="Directions-Run-Fill--Streamline-Outlined-Fill-Material" height="24" width="24">
  <path fill="green" d="M13.375 23V17.025l-2.7 -2.475 -1.05 4.7L3 17.875l0.275 -1.4 4.975 1 1.825 -9.225 -2.5 1.175v3.35h-1.5V8.4l4.1 -1.725c0.53335 -0.23335 0.9125 -0.37915 1.1375 -0.4375 0.225 -0.05835 0.45415 -0.0875 0.6875 -0.0875 0.33335 0 0.62915 0.07085 0.8875 0.2125 0.25835 0.14165 0.47915 0.35415 0.6625 0.6375l1.05 1.675c0.43335 0.7 1.025 1.30835 1.775 1.825S18 11.275 19 11.275v1.5c-1.11665 0 -2.1125 -0.25835 -2.9875 -0.775s-1.6875 -1.29165 -2.4375 -2.325l-0.975 3.95 2.275 2.1V23h-1.5ZM13.5 5.15c-0.5 0 -0.92915 -0.179165 -1.2875 -0.5375 -0.35835 -0.358335 -0.5375 -0.7875 -0.5375 -1.2875 0 -0.5 0.17915 -0.929165 0.5375 -1.2875C12.57085 1.679165 13 1.5 13.5 1.5c0.5 0 0.92915 0.179165 1.2875 0.5375 0.35835 0.358335 0.5375 0.7875 0.5375 1.2875 0 0.5 -0.17915 0.929165 -0.5375 1.2875C14.42915 4.970835 14 5.15 13.5 5.15Z" stroke-width="0.5"></path>
</svg>